<?xml version="1.0" encoding="utf-8"?>
<!-- Generator: Adobe Illustrator 23.0.4, SVG Export Plug-In . SVG Version: 6.00 Build 0)  -->
<svg version="1.1" id="Layer_1" xmlns="http://www.w3.org/2000/svg" xmlns:xlink="http://www.w3.org/1999/xlink" x="0px" y="0px"
	 viewBox="0 0 89.86 66.38" style="enable-background:new 0 0 89.86 66.38;" xml:space="preserve">
<g>
	<path d="M38.89,41.02c0,4.26-3,7.2-7.14,7.2h-9.3c-4.14,0-7.14-3.3-7.14-7.56v-19.8c0-4.26,3-7.44,7.14-7.44h9.3
		c4.14,0,7.14,2.94,7.14,7.2v1.32h-3.3v-1.8c0-1.92-1.56-3.72-3.54-3.72h-9.9c-1.98,0-3.54,1.92-3.54,3.84V41.2
		c0,1.92,1.56,3.78,3.54,3.78h9.9c1.98,0,3.54-1.74,3.54-3.66v-9h-7.14v-3.06h10.44V41.02z"/>
	<path d="M63.61,48.22H48.25v-34.8h15.36c4.14,0,7.26,3.06,7.26,7.32v3.96c0,4.26-3.24,6-3.24,6s3.24,1.56,3.24,5.4v4.8
		C70.87,45.16,67.75,48.22,63.61,48.22z M67.57,20.26c0-1.92-1.5-3.9-3.54-3.9H51.37v12.72h12.06c3.12,0,4.14-1.5,4.14-4.44V20.26z
		 M67.57,36.7c0-2.82-0.78-4.62-3.84-4.62H51.37v13.26h12.66c2.04,0,3.54-2.04,3.54-3.9V36.7z"/>
</g>
<g>
	<path d="M27.15,66.38l-23.93-0.4L0.4,63.16L0,39.23l4.24,0.06L4.7,60.89l0.79,0.79l21.61,0.45L27.15,66.38z"/>
</g>
<g>
	<path d="M89.86,27.15l-4.24-0.06L85.16,5.49L84.37,4.7L62.76,4.24L62.7,0l23.93,0.4l2.83,2.83L89.86,27.15z"/>
</g>
</svg>
