<?xml version="1.0" encoding="utf-8"?>
<!-- Generator: Adobe Illustrator 23.0.6, SVG Export Plug-In . SVG Version: 6.00 Build 0)  -->
<svg version="1.1" id="Layer_1" xmlns="http://www.w3.org/2000/svg" xmlns:xlink="http://www.w3.org/1999/xlink" x="0px" y="0px"
	 viewBox="0 0 643.2 136.1" style="enable-background:new 0 0 643.2 136.1;" xml:space="preserve">
<style type="text/css">
	.st0{fill:#4654A3;}
	.st1{fill:#EC2224;}
	.st2{fill:#929497;}
	.st3{fill:none;}
	.st4{fill:#3D5AA7;}
	.st5{fill:#E92627;}
</style>
<g>
	<path class="st0" d="M193.3,15.7v5.1h-13.1v43.4h-5.8V20.8h-13.1v-5.1H193.3z"/>
	<path class="st0" d="M205.6,13.3v20.7c2.2-4.6,6-6.8,11.5-6.8c3.5,0,6.3,1.1,8.5,3.2c2.1,2.2,3.2,5.1,3.2,8.8v25h-5.7V40.6
		c0-2.6-0.7-4.7-2.1-6.1c-1.4-1.4-3.2-2.2-5.4-2.2c-2.7,0-5,1-7.1,3.1c-2,2.1-3,5-3,8.9v19.9h-5.6V13.3H205.6z"/>
	<path class="st0" d="M265.5,57v5.3c-2.8,1.5-6.3,2.2-10.4,2.2c-5.5,0-10-1.7-13.4-5.1c-3.4-3.4-5.1-7.9-5.1-13.4
		c0-5.8,1.5-10.4,4.5-13.8c3-3.4,6.9-5,11.7-5c4.6,0,8.2,1.5,10.9,4.4c2.7,2.9,4,7.1,4,12.5c0,1.5-0.1,3-0.4,4.2h-24.9
		c0.4,3.6,1.8,6.4,4.1,8.3c2.3,1.9,5.3,2.9,9.1,2.9C259.7,59.5,263,58.7,265.5,57z M262.1,43.6v-1.4c0-3-0.8-5.4-2.4-7.2
		c-1.6-1.8-3.9-2.7-6.8-2.7c-2.7,0-5.1,1-7,3c-1.9,2-3,4.8-3.4,8.4H262.1z"/>
	<path class="st0" d="M282,27.7v6.4c1.9-4.5,5.2-6.8,9.9-6.8c0.9,0,1.5,0,2,0.1v5.6c-1-0.3-2-0.5-3.1-0.5c-2.5,0-4.7,1.2-6.3,3.5
		c-1.7,2.4-2.5,5.1-2.5,8.1v19.9h-5.7l0.1-36.5H282z"/>
	<path class="st0" d="M305.5,27.7v5.9c2-4.3,5.4-6.4,10.3-6.4c5.6,0,9.2,2.4,10.7,7.1c1.1-2.3,2.5-4.1,4.4-5.3
		c1.9-1.2,4-1.8,6.4-1.8c3.8,0,6.6,1.1,8.6,3.2c1.9,2.2,2.9,5.1,2.9,8.7v25.1H343V40.6c0-5.5-2.3-8.3-7-8.3c-2.3,0-4.4,1-6.2,3.1
		c-1.8,2.1-2.7,5-2.7,8.8v19.9h-5.7V40.6c0-5.5-2.3-8.3-7-8.3c-2.3,0-4.4,1-6.2,3.1c-1.8,2.1-2.7,5-2.7,8.8v19.9h-5.6V27.7H305.5z"
		/>
	<path class="st0" d="M373.6,64.9c-5.2,0-9.4-1.8-12.4-5.3c-3-3.5-4.6-8-4.6-13.4c0-5.4,1.6-9.9,4.7-13.6c3.1-3.6,7.2-5.4,12.3-5.4
		c5.5,0,9.8,1.8,12.8,5.3c3,3.6,4.5,8.1,4.5,13.5c0,5.4-1.5,9.9-4.6,13.5C383.2,63.1,379,64.9,373.6,64.9z M373.6,32.3
		c-3.5,0-6.2,1.3-8.1,4c-2,2.7-3,6-3,9.9c0,3.8,1,7,3,9.7c2,2.7,4.7,4,8.1,4c3.6,0,6.5-1.3,8.4-3.9c2-2.6,3-5.9,3-9.8
		c0-4-0.9-7.4-2.8-10C380.3,33.6,377.4,32.3,373.6,32.3z"/>
	<path class="st0" d="M424.9,17.5v6.1c-2.9-1.9-6.4-2.9-10.5-2.9c-2.9,0-5.3,0.7-7,2.1c-1.7,1.4-2.6,3.2-2.6,5.4
		c0,1.2,0.2,2.2,0.7,3.1c0.5,0.9,1.3,1.8,2.4,2.6c1.2,0.8,2.1,1.4,3,1.8c0.8,0.4,2.1,1,3.8,1.8c1.6,0.7,2.9,1.3,3.7,1.7
		c0.9,0.4,2,1.1,3.3,1.9c1.4,0.9,2.4,1.8,3.1,2.6c0.7,0.8,1.3,1.9,1.9,3.3c0.6,1.4,0.8,2.8,0.8,4.4c0,4.3-1.5,7.6-4.4,9.9
		c-2.9,2.3-6.7,3.5-11.3,3.5c-5.1,0-9.4-1-13-3.1v-6.3c3.5,2.6,7.8,4,12.8,4c3,0,5.4-0.7,7.1-2c1.7-1.3,2.6-3.3,2.6-5.8
		c0-1.1-0.2-2-0.6-2.8c-0.4-0.8-1.1-1.6-2-2.3c-0.9-0.7-1.8-1.3-2.7-1.7c-0.8-0.5-2-1-3.4-1.7c-0.3-0.1-0.7-0.3-1.3-0.6
		c-2.1-0.9-3.6-1.7-4.7-2.2c-1.1-0.6-2.4-1.4-3.8-2.6c-1.5-1.1-2.5-2.4-3.2-3.9c-0.7-1.5-1-3.2-1-5.2c0-4.1,1.5-7.4,4.4-9.7
		c3-2.3,6.7-3.5,11.1-3.5C418.5,15.3,422,16,424.9,17.5z"/>
	<path class="st0" d="M463.6,57v5.3c-2.8,1.5-6.3,2.2-10.4,2.2c-5.5,0-10-1.7-13.4-5.1c-3.4-3.4-5.1-7.9-5.1-13.4
		c0-5.8,1.5-10.4,4.5-13.8c3-3.4,6.9-5,11.7-5c4.6,0,8.2,1.5,10.9,4.4c2.7,2.9,4,7.1,4,12.5c0,1.5-0.1,3-0.4,4.2h-24.9
		c0.4,3.6,1.8,6.4,4.1,8.3c2.3,1.9,5.3,2.9,9.1,2.9C457.9,59.5,461.2,58.7,463.6,57z M460.2,43.6v-1.4c0-3-0.8-5.4-2.4-7.2
		c-1.6-1.8-3.9-2.7-6.8-2.7c-2.7,0-5.1,1-7,3c-1.9,2-3,4.8-3.4,8.4H460.2z"/>
	<path class="st0" d="M478.3,46.2c0,3.9,1.2,7.2,3.6,9.8c2.4,2.6,5.7,3.9,10,3.9c2.8,0,5.4-0.8,7.8-2.4v5.4
		c-2.3,1.4-5.1,2.1-8.5,2.1c-5.8,0-10.3-1.8-13.7-5.5c-3.4-3.7-5.1-8.1-5.1-13.4c0-5.2,1.7-9.6,5.1-13.4c3.4-3.7,8-5.6,13.9-5.6
		c3.1,0,5.9,0.7,8.4,2v5.4c-2.2-1.5-4.8-2.2-7.8-2.2c-4.1,0-7.4,1.3-9.9,4C479.5,38.9,478.3,42.2,478.3,46.2z"/>
	<path class="st0" d="M531.1,27.7h5.7v36.5h-5.7v-6.3c-1.9,4.5-5.7,6.8-11.4,6.8c-3.6,0-6.4-1.1-8.5-3.2c-2.1-2.1-3.1-5-3.1-8.6
		V27.7h5.7v23.7c0,2.6,0.7,4.7,2,6c1.3,1.4,3.2,2.1,5.5,2.1c3,0,5.4-1.1,7.2-3.2c1.8-2.1,2.7-5,2.7-8.6V27.7z"/>
	<path class="st0" d="M553,27.7v6.4c1.9-4.5,5.2-6.8,9.9-6.8c0.9,0,1.5,0,2,0.1v5.6c-1-0.3-2-0.5-3.1-0.5c-2.5,0-4.7,1.2-6.3,3.5
		c-1.7,2.4-2.5,5.1-2.5,8.1v19.9h-5.7l0.1-36.5H553z"/>
	<path class="st0" d="M571.3,18.9c-0.7-0.7-1-1.6-1-2.6c0-1.1,0.3-1.9,1-2.7c0.7-0.7,1.6-1.1,2.6-1.1s1.9,0.4,2.7,1.1
		c0.7,0.7,1.1,1.6,1.1,2.7c0,1.1-0.4,1.9-1.1,2.6c-0.7,0.7-1.6,1-2.7,1S572,19.6,571.3,18.9z M571.1,64.2V27.7h5.7v36.5H571.1z"/>
	<path class="st0" d="M595.4,32.3v21.4c0,3.9,1.8,5.8,5.5,5.8c1.9,0,3.5-0.6,5-1.7v5.4c-1.6,0.9-3.4,1.3-5.3,1.3
		c-7.2,0-10.8-3.7-10.8-11V32.3h-5.8v-4.6h5.8v-9.1h5.7v9.1h10.1v4.6H595.4z"/>
	<path class="st0" d="M624.2,63.3l-14.8-35.6h6.4l4.8,12l6.4,16.6c0.4-1.2,2.3-6.8,5.8-16.6l4.2-12h6.1L630,63.3
		c-1.9,4.9-4.1,8.4-6.7,10.4c-2.6,2-5.5,3-8.8,3c-1.2,0-2.3-0.1-3-0.4v-5.1c0.7,0.2,1.5,0.3,2.4,0.3
		C618.8,71.6,622.2,68.8,624.2,63.3z"/>
</g>
<g>
	<path class="st1" d="M178.1,92.9v10c1.3-2,3.1-3,5.5-3c2.3,0,4.2,0.8,5.6,2.5c1.5,1.7,2.2,4,2.2,6.9c0,2.6-0.7,4.8-2.1,6.6
		c-1.4,1.8-3.3,2.7-5.7,2.7c-2.4,0-4.2-1-5.5-3.1v2.8h-4.4V92.9H178.1z M182.7,114.9c1.2,0,2.3-0.5,3.1-1.5c0.8-1,1.3-2.4,1.3-4
		c0-1.8-0.4-3.2-1.3-4.3c-0.9-1-1.9-1.5-3.1-1.5c-1.2,0-2.2,0.5-3.1,1.4c-0.9,0.9-1.4,2.3-1.4,4.2c0,1.9,0.4,3.3,1.3,4.3
		C180.3,114.4,181.4,114.9,182.7,114.9z"/>
	<path class="st1" d="M200.2,118l-7.2-17.9h4.8l2.1,5.8c0.6,1.7,1.2,3.2,1.6,4.4c0.4,1.2,0.6,1.9,0.7,2.2l0.1,0.5
		c0.2-0.8,1-3.2,2.3-7.1l1.9-5.8h4.5l-6.6,17.7c-1.8,4.9-4.6,7.3-8.4,7.3c-0.7,0-1.3-0.1-1.8-0.2v-3.6c0.4,0.1,0.8,0.1,1.2,0.1
		C197.8,121.6,199.3,120.4,200.2,118z"/>
	<path class="st1" d="M237.4,94.1h4.6v24.3h-4.6v-10.2h-10v10.2h-4.5V94.1h4.5v10.2h10V94.1z"/>
	<path class="st1" d="M246,106.2c0-3.8,1-6.8,3.1-9.1c2.1-2.3,4.9-3.4,8.3-3.4c3.5,0,6.3,1.1,8.4,3.4s3.1,5.3,3.1,9.1
		c0,3.7-1,6.8-3.1,9c-2.1,2.3-4.9,3.4-8.3,3.4c-3.5,0-6.3-1.1-8.4-3.4C247.1,112.9,246,109.9,246,106.2z M250.9,106.2
		c0,2.5,0.6,4.6,1.8,6c1.2,1.5,2.8,2.2,4.8,2.2c2,0,3.6-0.7,4.8-2.2c1.2-1.5,1.8-3.5,1.8-6.1c0-2.6-0.6-4.6-1.8-6.1
		c-1.2-1.5-2.8-2.2-4.9-2.2c-2,0-3.6,0.7-4.8,2.2C251.5,101.6,250.9,103.6,250.9,106.2z"/>
	<path class="st1" d="M287.3,109.1v-15h4.5v14.9c0,3.1-0.8,5.5-2.5,7.2c-1.7,1.6-4,2.5-7,2.5c-2.9,0-5.2-0.8-6.9-2.4
		c-1.7-1.6-2.6-3.9-2.6-7V94.1h4.5v15.2c0,1.8,0.5,3.2,1.4,4c0.9,0.8,2.1,1.2,3.6,1.2C285.7,114.5,287.3,112.7,287.3,109.1z"/>
	<path class="st1" d="M310.2,95.1v4.4c-1.8-1.1-3.7-1.6-5.8-1.6c-1.1,0-2,0.3-2.6,0.8c-0.6,0.5-1,1.2-1,1.9s0.3,1.4,1,2
		c0.7,0.5,1.7,1.1,3.1,1.7c1,0.4,1.7,0.8,2.3,1.1c0.6,0.3,1.3,0.8,2,1.3c0.7,0.6,1.2,1.3,1.6,2.1c0.3,0.8,0.5,1.7,0.5,2.8
		c0,2.2-0.8,3.9-2.3,5.2c-1.5,1.3-3.6,1.9-6.1,1.9c-2.7,0-5-0.5-6.8-1.5v-4.6c2.1,1.5,4.3,2.2,6.8,2.2c1.1,0,2-0.3,2.7-0.8
		s1-1.3,1-2.2c0-0.4-0.1-0.8-0.3-1.2s-0.5-0.7-1-1c-0.5-0.3-0.9-0.6-1.2-0.7c-0.3-0.1-0.8-0.4-1.7-0.8c-0.2-0.1-0.4-0.2-0.5-0.3
		c-0.9-0.4-1.6-0.8-2.2-1.1c-0.6-0.3-1.2-0.8-1.8-1.3c-0.6-0.6-1.1-1.2-1.5-2c-0.3-0.8-0.5-1.6-0.5-2.6c0-2.1,0.8-3.7,2.3-5
		c1.5-1.2,3.5-1.9,6.1-1.9C306.6,93.9,308.6,94.3,310.2,95.1z"/>
	<path class="st1" d="M320,114.7h9.9v3.7h-14.5V94.1h14.3v3.7H320v6.6h8.7v3.7H320V114.7z"/>
	<path class="st1" d="M352.1,95.1v4.4c-1.8-1.1-3.8-1.6-6-1.6c-2.2,0-4.1,0.8-5.5,2.2s-2.2,3.5-2.2,6c0,2.5,0.7,4.5,2.2,6
		c1.5,1.5,3.4,2.2,5.8,2.2c2.3,0,4.2-0.6,5.8-1.8v4.5c-1.5,1-3.6,1.4-6.3,1.4c-3.6,0-6.6-1.1-8.9-3.4c-2.3-2.3-3.5-5.3-3.5-9
		c0-3.7,1.2-6.7,3.5-9c2.3-2.3,5.3-3.5,8.9-3.5C348.5,93.8,350.6,94.2,352.1,95.1z"/>
	<path class="st1" d="M355.4,106.2c0-3.8,1-6.8,3.1-9.1c2.1-2.3,4.9-3.4,8.3-3.4c3.5,0,6.3,1.1,8.4,3.4s3.1,5.3,3.1,9.1
		c0,3.7-1,6.8-3.1,9c-2.1,2.3-4.9,3.4-8.3,3.4c-3.5,0-6.3-1.1-8.4-3.4S355.4,109.9,355.4,106.2z M360.2,106.2c0,2.5,0.6,4.6,1.8,6
		c1.2,1.5,2.8,2.2,4.8,2.2c2,0,3.6-0.7,4.8-2.2c1.2-1.5,1.8-3.5,1.8-6.1c0-2.6-0.6-4.6-1.8-6.1c-1.2-1.5-2.8-2.2-4.9-2.2
		c-2,0-3.6,0.7-4.8,2.2C360.8,101.6,360.2,103.6,360.2,106.2z"/>
	<path class="st1" d="M381.9,118.4l1.9-24.3h5.2l3.3,8.8c0.6,1.5,1.1,3,1.6,4.4c0.5,1.5,0.9,2.6,1.1,3.3l0.3,1.1
		c0.7-2.5,1.8-5.4,3.1-8.9l3.4-8.8h5.2l2.4,24.3h-4.5l-0.9-9.5l-0.6-8.5c-0.9,2.5-1.9,5.3-3.1,8.5l-3.4,9.1h-3.1l-3.3-9.1l-2.8-8.4
		c0,1.2-0.2,4-0.5,8.4l-0.7,9.5H381.9z"/>
</g>
<rect x="63.3" y="67.7" transform="matrix(4.489393e-11 -1 1 4.489393e-11 63.2892 199.3891)" class="st2" width="136.1" height="0.7"/>
<g>
	<polygon class="st3" points="44.7,49 33,60.6 27.7,65.9 31.7,65.9 33.1,64.5 44.8,52.9 56.5,64.5 57.9,65.9 61.6,65.9 56.4,60.6 	
		"/>
	<polygon class="st3" points="37.8,65.9 51.5,65.9 44.7,59.1 	"/>
	<polygon class="st4" points="33,60.6 44.7,49 56.4,60.6 61.6,65.9 68,65.9 56.5,54.4 44.8,42.8 33.1,54.4 21.6,65.9 27.7,65.9 	"/>
	<polygon class="st4" points="44.8,52.9 33.1,64.5 31.7,65.9 37.8,65.9 44.7,59.1 51.5,65.9 57.9,65.9 56.5,64.5 	"/>
	<polygon class="st4" points="61.8,66 68.2,66 68,65.9 61.6,65.9 	"/>
	<polygon class="st4" points="27.5,66 27.7,65.9 21.6,65.9 21.4,66 	"/>
</g>
<g>
	<path class="st5" d="M0,24l7.8,51.7c0.7,4.8,3.3,9,7.2,11.9l29.8,21.9c0,0,0,0,0,0l29.8-21.9c3.9-2.8,6.5-7.1,7.2-11.9L89.6,24
		c0,0,0,0,0,0L0,24C0,23.9,0,23.9,0,24z M64.4,81L44.7,95.5L24.9,81c-3.9-2.8-6.4-7.1-7.2-11.8l-5.3-35.1h64.3l-5.3,35.1
		C70.8,73.9,68.3,78.2,64.4,81z"/>
</g>
</svg>
